<?xml version="1.0" encoding="UTF-8" standalone="no"?>
<!-- Created with Inkscape (http://www.inkscape.org/) -->

<svg
   width="53.307076mm"
   height="49.219284mm"
   viewBox="0 0 53.307076 49.219284"
   version="1.1"
   id="svg1"
   xml:space="preserve"
   inkscape:version="1.3.2 (091e20e, 2023-11-25, custom)"
   sodipodi:docname="Librarice-Logo.svg"
   xmlns:inkscape="http://www.inkscape.org/namespaces/inkscape"
   xmlns:sodipodi="http://sodipodi.sourceforge.net/DTD/sodipodi-0.dtd"
   xmlns="http://www.w3.org/2000/svg"
   xmlns:svg="http://www.w3.org/2000/svg"><sodipodi:namedview
     id="namedview1"
     pagecolor="#ffffff"
     bordercolor="#999999"
     borderopacity="1"
     inkscape:showpageshadow="2"
     inkscape:pageopacity="0"
     inkscape:pagecheckerboard="0"
     inkscape:deskcolor="#d1d1d1"
     inkscape:document-units="mm"
     inkscape:zoom="1.4142136"
     inkscape:cx="228.04194"
     inkscape:cy="503.81358"
     inkscape:window-width="1301"
     inkscape:window-height="745"
     inkscape:window-x="-8"
     inkscape:window-y="-8"
     inkscape:window-maximized="1"
     inkscape:current-layer="layer1"
     inkscape:export-bgcolor="#ffffffff" /><defs
     id="defs1" /><g
     inkscape:label="Layer 1"
     inkscape:groupmode="layer"
     id="layer1"
     style="display:inline"
     transform="translate(-43.549325,-114.93107)"><rect
       style="fill:#000000;stroke-width:0.465"
       id="rect9"
       width="5.359314"
       height="16.083933"
       x="156.74297"
       y="-60.91259"
       transform="rotate(90)"
       ry="0"
       rx="0" /><text
       xml:space="preserve"
       style="font-style:normal;font-variant:normal;font-weight:normal;font-stretch:normal;font-size:7.99486px;font-family:'Century Schoolbook';-inkscape-font-specification:'Century Schoolbook';fill:#000000;stroke-width:0.465001"
       x="61.707561"
       y="162.05653"
       id="text9"><tspan
         sodipodi:role="line"
         id="tspan9"
         style="font-style:normal;font-variant:normal;font-weight:normal;font-stretch:normal;font-family:'Franklin Gothic Demi';-inkscape-font-specification:'Franklin Gothic Demi';stroke-width:0.465001"
         x="61.707561"
         y="162.05653">IBRARICE</tspan></text><rect
       style="fill:#000000;stroke-width:0.465001"
       id="rect10"
       width="1.0723733"
       height="2.3908324"
       x="44.831608"
       y="156.95815"
       ry="0" /><rect
       style="fill:#000000;stroke-width:0.465001"
       id="rect11"
       width="52.729771"
       height="1.4153203"
       x="43.549324"
       y="162.73503" /><rect
       style="fill:#000000;stroke-width:0.465"
       id="rect12"
       width="5.359314"
       height="46.7756"
       x="-48.908638"
       y="-162.10228"
       transform="scale(-1)"
       ry="0"
       rx="0" /></g><g
     style="fill:#000000;stroke-width:4.71499"
     id="g1"
     transform="matrix(0.09167861,0,0,0.08385624,6.367641,-1.1574652)"
     inkscape:label="g1"
     inkscape:export-filename="..\g1.svg"
     inkscape:export-xdpi="96"
     inkscape:export-ydpi="96"><g
       id="g9"
       style="stroke-width:4.71499">
	<g
   id="g8"
   style="stroke-width:4.71499">
		<g
   id="g7"
   style="stroke-width:4.71499">
			<path
   d="m 84.718,340.769 c 4.461,0 8.075,-3.614 8.075,-8.075 V 179.307 c 0,-4.461 -3.614,-8.075 -8.075,-8.075 -4.461,0 -8.075,3.614 -8.075,8.075 v 153.388 c 0,4.459 3.614,8.074 8.075,8.074 z"
   id="path1"
   style="stroke-width:4.71499" />
			<path
   d="m 428.411,370.76 c -17.059,0 -30.938,13.88 -30.938,30.94 0,17.059 13.88,30.937 30.938,30.937 17.061,0 30.94,-13.88 30.94,-30.937 0,-17.062 -13.879,-30.94 -30.94,-30.94 z m 0,45.728 c -8.154,0 -14.787,-6.633 -14.787,-14.787 0,-8.155 6.633,-14.789 14.787,-14.789 8.155,0 14.789,6.635 14.789,14.789 0.001,8.152 -6.634,14.787 -14.789,14.787 z"
   id="path2"
   style="stroke-width:4.71499" />
			<path
   d="M 510.804,435.5 408.597,53.357 c -4.101,-15.344 -18.079,-26.059 -33.989,-26.059 -3.043,0 -6.084,0.401 -9.039,1.192 l -69.095,18.479 c -9.04,2.417 -16.611,8.233 -21.318,16.38 -4.708,8.144 -5.969,17.608 -3.552,26.647 l 10.143,37.927 c -3.439,-1.127 -7.108,-1.745 -10.921,-1.745 h -82.404 c -6.993,0 -13.51,2.062 -18.992,5.597 v -82.83 c 0,-19.377 -15.764,-35.142 -35.14,-35.142 H 35.14 C 15.765,13.805 0,29.568 0,48.945 v 414.109 c 0,19.377 15.765,35.142 35.142,35.142 h 99.152 c 10.877,0 20.614,-4.968 27.065,-12.754 6.451,7.786 16.189,12.754 27.067,12.754 h 82.404 c 19.377,0 35.142,-15.765 35.142,-35.142 V 218.482 l 67.841,253.655 c 4.102,15.343 18.081,26.058 33.99,26.058 3.043,0 6.084,-0.401 9.039,-1.191 l 69.096,-18.477 c 18.714,-5.008 29.869,-24.309 24.866,-43.027 z m -357.522,27.556 c 0,10.472 -8.519,18.992 -18.99,18.992 H 35.141 C 24.67,482.047 16.15,473.527 16.15,463.056 v -17.647 h 137.132 z m 0,-33.798 H 16.15 v -31.285 h 137.132 z m 0,-47.435 H 16.15 V 130.178 h 137.132 z m 0,-267.795 H 16.15 V 82.743 h 137.132 z m 10e-4,-47.436 H 153.282 16.15 V 48.945 c 0,-10.472 8.52,-18.992 18.992,-18.992 h 99.152 c 10.471,0 18.99,8.52 18.99,18.992 V 66.592 Z M 289.82,463.056 c 0,10.472 -8.52,18.992 -18.992,18.992 h -82.404 c -10.472,0 -18.992,-8.52 -18.992,-18.992 V 161.317 c 0,-10.472 8.52,-18.991 18.992,-18.991 h 82.404 c 10.472,0 18.992,8.519 18.992,18.991 z M 287.207,85.822 c -1.303,-4.871 -0.616,-9.983 1.933,-14.393 2.55,-4.41 6.637,-7.556 11.509,-8.859 l 69.096,-18.479 c 1.592,-0.426 3.23,-0.643 4.866,-0.643 8.609,0 16.17,5.789 18.387,14.08 L 404.306,99.809 298.515,128.1 Z m 15.48,57.879 105.79,-28.291 6.93,25.909 -105.79,28.291 z m 11.102,41.512 105.791,-28.291 3.477,13 -105.791,28.291 z m 7.65,28.601 105.79,-28.291 6.931,25.908 -105.791,28.291 z m 160.322,249.111 -69.096,18.477 c -1.592,0.426 -3.23,0.643 -4.866,0.643 -8.609,0 -16.172,-5.79 -18.389,-14.08 l -56.872,-212.641 105.791,-28.291 56.872,212.638 c 2.705,10.115 -3.324,20.549 -13.44,23.254 z"
   id="path3"
   style="stroke-width:4.71499" />
			<path
   d="m 452.396,341.315 c -1.152,-4.309 -5.587,-6.869 -9.887,-5.715 l -59.372,15.877 c -4.309,1.151 -6.867,5.578 -5.715,9.887 0.966,3.61 4.229,5.991 7.795,5.991 0.691,0 1.393,-0.089 2.091,-0.277 l 59.372,-15.877 c 4.31,-1.151 6.868,-5.577 5.716,-9.886 z"
   id="path4"
   style="stroke-width:4.71499" />
			<path
   d="m 263.909,308.725 h -68.565 c -4.461,0 -8.075,3.614 -8.075,8.075 0,4.46 3.614,8.075 8.075,8.075 h 68.565 c 4.461,0 8.075,-3.616 8.075,-8.075 0,-4.461 -3.614,-8.075 -8.075,-8.075 z"
   id="path5"
   style="stroke-width:4.71499" />
			<path
   d="m 229.626,203.676 c -25.036,0 -45.404,20.369 -45.404,45.405 0,25.036 20.368,45.404 45.404,45.404 25.037,0 45.406,-20.368 45.406,-45.404 -10e-4,-25.037 -20.369,-45.405 -45.406,-45.405 z m 0,74.658 c -16.13,0 -29.254,-13.123 -29.254,-29.253 0,-16.131 13.124,-29.255 29.254,-29.255 16.131,0 29.256,13.123 29.256,29.255 -0.001,16.131 -13.124,29.253 -29.256,29.253 z"
   id="path6"
   style="stroke-width:4.71499" />
			<path
   d="m 263.909,339.804 h -68.565 c -4.461,0 -8.075,3.614 -8.075,8.075 0,4.461 3.614,8.075 8.075,8.075 h 68.565 c 4.461,0 8.075,-3.614 8.075,-8.075 0,-4.461 -3.614,-8.075 -8.075,-8.075 z"
   id="path7"
   style="stroke-width:4.71499" />
		</g>
	</g>
</g></g></svg>
